<svg width="512" height="512" fill="none" xmlns="http://www.w3.org/2000/svg"><mask id="prefix__a" style="mask-type:alpha" maskUnits="userSpaceOnUse" x="0" y="0" width="512" height="512"><path fill="#fff" d="M0 0h512v512H0z"/></mask><g filter="url(#prefix__prefix__filter0_ddi_911_5)" mask="url(#prefix__a)"><path d="M462.385 255.726c4.745 0 8.148 1.032 10.211 3.096 2.269 2.063 3.404 4.746 3.404 8.048 0 5.366-1.65 10.112-4.951 14.239-3.094 4.128-8.045 6.295-14.852 6.501-16.297.206-30.943-1.032-43.939-3.715-14.44 30.749-31.871 56.339-52.293 76.769C339.749 380.888 319.739 391 299.936 391c-18.154 0-31.768-9.596-40.845-28.788-9.076-19.399-14.234-45.298-15.471-77.698-12.377 35.908-26.405 62.633-42.083 80.174C186.066 382.229 169.563 391 152.029 391c-19.803 0-34.759-12.279-44.867-36.837C97.054 329.399 92 296.174 92 254.488c0-30.336 2.682-63.664 8.045-99.985 1.444-10.319 4.023-17.438 7.736-21.359 3.919-4.128 10.005-6.191 18.256-6.191 6.189 0 10.933 1.341 14.234 4.024 3.507 2.683 5.26 7.636 5.26 14.858 0 1.445-.206 4.231-.619 8.358-6.188 42.306-9.283 78.317-9.283 108.034 0 27.653 2.373 49.012 7.117 64.077 4.745 15.065 11.14 22.597 19.185 22.597 7.22 0 15.884-7.532 25.992-22.597 10.314-15.271 20.525-37.765 30.633-67.482 10.108-29.924 18.669-65.522 25.683-106.796 1.65-9.492 4.641-15.993 8.973-19.501 4.538-3.715 10.624-5.572 18.256-5.572 6.395 0 11.036 1.444 13.924 4.334 3.095 2.682 4.642 6.81 4.642 12.382 0 3.301-.206 5.881-.619 7.738-5.776 33.638-8.664 67.276-8.664 100.914 0 22.907.722 41.17 2.166 54.791 1.65 13.62 4.641 24.041 8.973 31.264 4.539 7.017 11.037 10.525 19.494 10.525 9.902 0 20.938-7.429 33.109-22.288 12.171-15.064 23.31-33.741 33.418-56.028-12.583-7.842-22.072-17.954-28.467-30.336-6.395-12.589-9.592-27.035-9.592-43.338s2.475-30.026 7.426-41.17c5.157-11.35 12.068-19.811 20.732-25.383 8.87-5.572 18.668-8.358 29.395-8.358 13.203 0 23.62 4.746 31.253 14.239 7.838 9.493 11.758 22.494 11.758 39.004 0 23.319-5.054 49.218-15.162 77.697 10.52 1.857 22.897 2.786 37.131 2.786zm-91.281-60.981c0 20.224 6.498 35.185 19.494 44.884 8.045-23.113 12.068-42.202 12.068-57.267 0-8.667-1.135-14.961-3.404-18.882-2.269-4.127-5.364-6.191-9.283-6.191-5.57 0-10.108 3.302-13.615 9.905-3.507 6.398-5.26 15.581-5.26 27.551z" fill="#5CB5DB"/></g><defs><filter id="prefix__prefix__filter0_ddi_911_5" x="-26.7" y="7.3" width="621.4" height="506.4" filterUnits="userSpaceOnUse" color-interpolation-filters="sRGB"><feFlood flood-opacity="0" result="BackgroundImageFix"/><feColorMatrix in="SourceAlpha" values="0 0 0 0 0 0 0 0 0 0 0 0 0 0 0 0 0 0 127 0" result="hardAlpha"/><feOffset dy="4"/><feGaussianBlur stdDeviation="2"/><feComposite in2="hardAlpha" operator="out"/><feColorMatrix values="0 0 0 0 0 0 0 0 0 0 0 0 0 0 0 0 0 0 0.25 0"/><feBlend in2="BackgroundImageFix" result="effect1_dropShadow_911_5"/><feColorMatrix in="SourceAlpha" values="0 0 0 0 0 0 0 0 0 0 0 0 0 0 0 0 0 0 127 0" result="hardAlpha"/><feOffset dy="4"/><feGaussianBlur stdDeviation="20"/><feComposite in2="hardAlpha" operator="out"/><feColorMatrix values="0 0 0 0 0.620692 0 0 0 0 0.731083 0 0 0 0 0.771517 0 0 0 1 0"/><feBlend in2="effect1_dropShadow_911_5" result="effect2_dropShadow_911_5"/><feBlend in="SourceGraphic" in2="effect2_dropShadow_911_5" result="shape"/><feColorMatrix in="SourceAlpha" values="0 0 0 0 0 0 0 0 0 0 0 0 0 0 0 0 0 0 127 0" result="hardAlpha"/><feOffset dy="4"/><feGaussianBlur stdDeviation="18"/><feComposite in2="hardAlpha" operator="arithmetic" k2="-1" k3="1"/><feColorMatrix values="0 0 0 0 0.8 0 0 0 0 0.5 0 0 0 0 0.6 0 0 0 1 0"/><feBlend in2="shape" result="effect3_innerShadow_911_5"/></filter></defs></svg>