<svg width="448" height="100" fill="none" xmlns="http://www.w3.org/2000/svg"><g filter="url(#prefix__filter0_di_911_2)"><path d="M119.528 49.528c1.472 0 2.528.32 3.168.96.704.64 1.056 1.472 1.056 2.496 0 1.664-.512 3.136-1.536 4.416-.96 1.28-2.496 1.952-4.608 2.016-5.056.064-9.6-.32-13.632-1.152-4.48 9.536-9.888 17.472-16.224 23.808-6.272 6.272-12.48 9.408-18.624 9.408-5.632 0-9.856-2.976-12.672-8.928-2.816-6.016-4.416-14.048-4.8-24.096C47.816 69.592 43.464 77.88 38.6 83.32c-4.8 5.44-9.92 8.16-15.36 8.16-6.144 0-10.784-3.808-13.92-11.424-3.136-7.68-4.704-17.984-4.704-30.912 0-9.408.832-19.744 2.496-31.008.448-3.2 1.248-5.408 2.4-6.624 1.216-1.28 3.104-1.92 5.664-1.92 1.92 0 3.392.416 4.416 1.248 1.088.832 1.632 2.368 1.632 4.608 0 .448-.064 1.312-.192 2.592-1.92 13.12-2.88 24.288-2.88 33.504 0 8.576.736 15.2 2.208 19.872 1.472 4.672 3.456 7.008 5.952 7.008 2.24 0 4.928-2.336 8.064-7.008 3.2-4.736 6.368-11.712 9.504-20.928 3.136-9.28 5.792-20.32 7.968-33.12.512-2.944 1.44-4.96 2.784-6.048 1.408-1.152 3.296-1.728 5.664-1.728 1.984 0 3.424.448 4.32 1.344.96.832 1.44 2.112 1.44 3.84 0 1.024-.064 1.824-.192 2.4a184.54 184.54 0 00-2.688 31.296c0 7.104.224 12.768.672 16.992.512 4.224 1.44 7.456 2.784 9.696 1.408 2.176 3.424 3.264 6.048 3.264 3.072 0 6.496-2.304 10.272-6.912 3.776-4.672 7.232-10.464 10.368-17.376-3.904-2.432-6.848-5.568-8.832-9.408-1.984-3.904-2.976-8.384-2.976-13.44 0-5.056.768-9.312 2.304-12.768 1.6-3.52 3.744-6.144 6.432-7.872C93 8.92 96.04 8.056 99.368 8.056c4.096 0 7.328 1.472 9.696 4.416 2.432 2.944 3.648 6.976 3.648 12.096 0 7.232-1.568 15.264-4.704 24.096 3.264.576 7.104.864 11.52.864zm-28.32-18.912c0 6.272 2.016 10.912 6.048 13.92C99.752 37.368 101 31.448 101 26.776c0-2.688-.352-4.64-1.056-5.856-.704-1.28-1.664-1.92-2.88-1.92-1.728 0-3.136 1.024-4.224 3.072-1.088 1.984-1.632 4.832-1.632 8.544zm66.029 38.976c.832 0 1.472.384 1.919 1.152.513.768.769 1.824.769 3.168 0 2.56-.608 4.544-1.824 5.952-2.368 2.88-5.728 5.536-10.08 7.968-4.288 2.432-8.896 3.648-13.824 3.648-6.72 0-11.936-1.824-15.648-5.472-3.712-3.648-5.569-8.64-5.569-14.976 0-4.416.929-8.512 2.785-12.288 1.856-3.84 4.416-6.88 7.68-9.12 3.328-2.24 7.072-3.36 11.232-3.36 3.712 0 6.688 1.12 8.928 3.36 2.24 2.176 3.36 5.152 3.36 8.928 0 4.416-1.6 8.224-4.8 11.424-3.136 3.136-8.48 5.632-16.032 7.488 1.6 2.944 4.64 4.416 9.12 4.416 2.88 0 6.144-.992 9.792-2.976a32.935 32.935 0 009.6-7.968c.768-.896 1.632-1.344 2.592-1.344zm-24.192-13.92c-2.368 0-4.384 1.376-6.048 4.128-1.6 2.752-2.4 6.08-2.4 9.984v.192c3.776-.896 6.752-2.24 8.928-4.032 2.176-1.792 3.264-3.872 3.264-6.24 0-1.216-.352-2.176-1.056-2.88-.64-.768-1.536-1.152-2.688-1.152zm70.135 5.856c.832 0 1.472.416 1.92 1.248.448.832.672 1.888.672 3.168 0 1.6-.224 2.848-.672 3.744-.448.832-1.152 1.408-2.112 1.728-3.84 1.344-8.064 2.112-12.672 2.304-1.28 5.312-3.712 9.6-7.296 12.864-3.52 3.264-7.424 4.896-11.712 4.896-6.464 0-11.168-2.464-14.112-7.392-2.944-4.928-4.416-12.064-4.416-21.408 0-8.256 1.024-17.216 3.072-26.88 2.048-9.728 5.024-17.984 8.928-24.768C168.748 4.184 173.452.76 178.892.76c2.944 0 5.312 1.28 7.104 3.84 1.792 2.496 2.688 5.76 2.688 9.792 0 5.248-.992 10.464-2.976 15.648-1.984 5.184-5.28 10.624-9.888 16.32 4.288.32 7.776 2.112 10.464 5.376 2.688 3.2 4.288 7.168 4.8 11.904 3.008-.192 6.592-.832 10.752-1.92.384-.128.832-.192 1.344-.192zm-26.496-51.264c-1.28 0-2.688 1.92-4.224 5.76-1.472 3.776-2.848 8.928-4.128 15.456-1.28 6.528-2.24 13.664-2.88 21.408 4.224-7.744 7.584-14.56 10.08-20.448 2.56-5.952 3.84-11.232 3.84-15.84 0-2.048-.256-3.616-.768-4.704-.448-1.088-1.088-1.632-1.92-1.632zm-4.992 71.04c1.984 0 3.744-.832 5.28-2.496 1.536-1.664 2.56-4.064 3.072-7.2-1.984-1.344-3.52-3.104-4.608-5.28a16.036 16.036 0 01-1.536-6.912c0-.896.128-2.112.384-3.648h-.288c-2.624 0-4.832 1.312-6.624 3.936-1.728 2.56-2.592 6.016-2.592 10.368 0 3.648.672 6.432 2.016 8.352 1.408 1.92 3.04 2.88 4.896 2.88zm99.231-11.712c.832 0 1.472.384 1.92 1.152.512.768.768 1.824.768 3.168 0 2.496-.608 4.48-1.824 5.952-3.136 3.712-6.24 6.592-9.312 8.64-3.072 1.984-6.496 2.976-10.272 2.976-5.696 0-10.016-1.696-12.96-5.088-2.88-3.392-5.216-8.352-7.008-14.88l-3.264-11.904-22.656 28.032c-1.28 1.6-2.592 2.656-3.936 3.168-1.344.448-2.912.672-4.704.672-1.792 0-3.296-.32-4.512-.96-1.152-.704-1.728-1.664-1.728-2.88 0-1.6.928-3.424 2.784-5.472l31.104-35.424-3.072-11.232c-1.472-5.248-3.104-8.928-4.896-11.04-1.792-2.112-3.84-3.168-6.144-3.168-3.392 0-7.36 2.464-11.904 7.392-.768.832-1.632 1.248-2.592 1.248-.96 0-1.792-.352-2.496-1.056-.64-.768-.96-1.728-.96-2.88 0-1.92.928-4 2.784-6.24 2.624-3.072 5.472-5.536 8.544-7.392 3.072-1.856 6.72-2.784 10.944-2.784 4.544 0 8.288 1.44 11.232 4.32 2.944 2.816 5.28 7.392 7.008 13.728l1.92 6.72 16.8-20.448c1.28-1.536 2.592-2.624 3.936-3.264 1.344-.64 2.976-.96 4.896-.96 1.728 0 3.072.32 4.032.96 1.024.64 1.536 1.536 1.536 2.688 0 1.536-.864 3.296-2.592 5.28l-24.96 28.8L244.811 67c.96 3.392 1.824 5.984 2.592 7.776.768 1.792 1.696 3.136 2.784 4.032 1.152.832 2.656 1.248 4.512 1.248 1.984 0 4.032-.704 6.144-2.112 2.176-1.408 4.672-3.744 7.488-7.008.768-.896 1.632-1.344 2.592-1.344zm115.35 0c.832 0 1.472.384 1.92 1.152.512.768.768 1.824.768 3.168 0 2.496-.608 4.48-1.824 5.952-3.072 3.712-6.176 6.592-9.312 8.64-3.136 1.984-6.848 2.976-11.136 2.976-4.736 0-8.608-1.376-11.616-4.128-3.008-2.816-5.824-7.168-8.448-13.056-1.92-4.224-3.52-7.36-4.8-9.408-1.216-2.112-2.432-3.584-3.648-4.416-1.216-.896-2.752-1.44-4.608-1.632l-1.056 7.104c-1.344 9.152-3.968 15.744-7.872 19.776-3.84 4.032-9.152 6.048-15.936 6.048-4.416 0-8.352-1.056-11.808-3.168-3.392-2.176-5.76-4.928-7.104-8.256-.448-1.152-.672-2.4-.672-3.744 0-1.92.448-3.584 1.344-4.992.896-1.408 2.048-2.112 3.456-2.112.832 0 1.536.224 2.112.672.576.384 1.12 1.088 1.632 2.112 1.984 3.712 3.712 6.304 5.184 7.776 1.536 1.472 3.424 2.208 5.664 2.208 2.56 0 4.736-1.152 6.528-3.456 1.856-2.368 3.168-5.984 3.936-10.848l1.344-9.12h-1.536c-1.472 0-2.624-.416-3.456-1.248-.832-.832-1.248-1.984-1.248-3.456 0-1.664.416-2.976 1.248-3.936.896-1.024 1.984-1.536 3.264-1.536h3.168c.448-3.136.768-5.312.96-6.528l2.976-21.6a41.142 41.142 0 00-4.704-.288c-5.44 0-9.568.96-12.384 2.88-2.816 1.856-4.224 4.544-4.224 8.064 0 1.6.16 2.912.48 3.936.384.96.864 2.048 1.44 3.264.256.512.384 1.088.384 1.728 0 1.408-.672 2.656-2.016 3.744-1.28 1.024-2.72 1.536-4.32 1.536-2.048 0-3.552-.896-4.512-2.688-1.92-3.392-2.88-7.04-2.88-10.944 0-4.032 1.088-7.712 3.264-11.04 2.24-3.328 5.6-5.984 10.08-7.968 4.48-2.048 10.016-3.072 16.608-3.072 2.88 0 5.504.16 7.872.48 2.432.32 5.088.928 7.968 1.824 3.136.96 4.704 2.752 4.704 5.376 0 3.52-1.504 5.28-4.512 5.28l-3.744 25.824c7.488-.768 13.568-3.968 18.24-9.6 4.736-5.696 8.672-13.408 11.808-23.136.576-1.792 1.536-3.168 2.88-4.128 1.408-.96 3.168-1.44 5.28-1.44 1.792 0 3.168.416 4.128 1.248 1.024.768 1.536 1.888 1.536 3.36 0 .448-.128 1.184-.384 2.208-3.2 10.56-7.776 18.944-13.728 25.152-5.952 6.208-12.448 10.336-19.488 12.384 2.432.576 4.416 1.44 5.952 2.592a15.312 15.312 0 014.032 4.32c1.088 1.664 2.336 4 3.744 7.008 1.984 4.224 3.84 7.232 5.568 9.024 1.728 1.728 3.744 2.592 6.048 2.592 2.048 0 4-.672 5.856-2.016 1.856-1.408 4.192-3.776 7.008-7.104.768-.896 1.632-1.344 2.592-1.344zm7.442-29.664c-2.688 0-4.704-.608-6.048-1.824-1.344-1.28-2.016-3.04-2.016-5.28s.864-4.096 2.592-5.568c1.792-1.536 4-2.304 6.624-2.304 2.368 0 4.288.576 5.76 1.728 1.472 1.152 2.208 2.784 2.208 4.896 0 2.56-.832 4.608-2.496 6.144-1.664 1.472-3.872 2.208-6.624 2.208zm-.768 51.552c-4.16 0-7.2-1.472-9.12-4.416-1.856-2.944-2.784-6.848-2.784-11.712 0-2.88.352-6.56 1.056-11.04.768-4.544 1.728-8.768 2.88-12.672.576-2.048 1.344-3.456 2.304-4.224.96-.768 2.496-1.152 4.608-1.152 3.264 0 4.896 1.088 4.896 3.264 0 1.6-.608 5.312-1.824 11.136-1.536 7.04-2.304 11.808-2.304 14.304 0 1.92.256 3.392.768 4.416.512 1.024 1.376 1.536 2.592 1.536 1.152 0 2.592-.8 4.32-2.4 1.728-1.6 4.032-4.128 6.912-7.584.768-.896 1.632-1.344 2.592-1.344.832 0 1.472.384 1.92 1.152.512.768.768 1.824.768 3.168 0 2.56-.608 4.544-1.824 5.952-6.336 7.744-12.256 11.616-17.76 11.616zm27.657-36.096c-.128 3.2-.192 5.696-.192 7.488 0 4.608.224 8.224.672 10.848.512 2.56 1.312 4.416 2.4 5.568 1.152 1.088 2.72 1.632 4.704 1.632 1.024 0 2.24-.32 3.648-.96a15.238 15.238 0 003.84-2.496c.704-.64 1.408-.96 2.112-.96.768 0 1.376.448 1.824 1.344.512.832.768 1.856.768 3.072a8.66 8.66 0 01-.768 3.552 6.764 6.764 0 01-2.112 2.88c-3.328 2.752-7.104 4.128-11.328 4.128-6.08 0-10.528-2.528-13.344-7.584-2.816-5.12-4.224-11.776-4.224-19.968 0-2.816.096-5.664.288-8.544h-3.744c-1.92 0-3.232-.352-3.936-1.056-.64-.704-.96-1.824-.96-3.36 0-3.584 1.44-5.376 4.32-5.376h5.472c1.088-7.04 2.752-13.472 4.992-19.296s4.928-10.464 8.064-13.92c3.2-3.456 6.624-5.184 10.272-5.184 2.688 0 4.8 1.184 6.336 3.552 1.536 2.368 2.304 5.344 2.304 8.928 0 9.92-4.16 18.56-12.48 25.92h10.752c1.024 0 1.76.224 2.208.672.448.448.672 1.28.672 2.496 0 4.416-3.616 6.624-10.848 6.624h-11.712zm10.176-38.976c-.96 0-2.048 1.216-3.264 3.648-1.152 2.368-2.272 5.696-3.36 9.984-1.024 4.224-1.888 8.928-2.592 14.112 3.776-3.264 6.592-6.912 8.448-10.944 1.92-4.096 2.88-7.808 2.88-11.136 0-3.776-.704-5.664-2.112-5.664z" fill="#5CB5DB"/></g><defs><filter id="prefix__filter0_di_911_2" x=".616" y=".76" width="446.548" height="99.008" filterUnits="userSpaceOnUse" color-interpolation-filters="sRGB"><feFlood flood-opacity="0" result="BackgroundImageFix"/><feColorMatrix in="SourceAlpha" values="0 0 0 0 0 0 0 0 0 0 0 0 0 0 0 0 0 0 127 0" result="hardAlpha"/><feOffset dy="4"/><feGaussianBlur stdDeviation="2"/><feComposite in2="hardAlpha" operator="out"/><feColorMatrix values="0 0 0 0 0 0 0 0 0 0 0 0 0 0 0 0 0 0 0.25 0"/><feBlend in2="BackgroundImageFix" result="effect1_dropShadow_911_2"/><feBlend in="SourceGraphic" in2="effect1_dropShadow_911_2" result="shape"/><feColorMatrix in="SourceAlpha" values="0 0 0 0 0 0 0 0 0 0 0 0 0 0 0 0 0 0 127 0" result="hardAlpha"/><feOffset dy="4"/><feGaussianBlur stdDeviation="18.95"/><feComposite in2="hardAlpha" operator="arithmetic" k2="-1" k3="1"/><feColorMatrix values="0 0 0 0 0.789258 0 0 0 0 0.521162 0 0 0 0 0.612382 0 0 0 1 0"/><feBlend in2="shape" result="effect2_innerShadow_911_2"/></filter></defs></svg>