<svg width="256" height="256" fill="none" xmlns="http://www.w3.org/2000/svg"><mask id="prefix__a" style="mask-type:alpha" maskUnits="userSpaceOnUse" x="0" y="0" width="256" height="256"><path fill="#fff" d="M0 0h256v256H0z"/></mask><g filter="url(#prefix__prefix__filter0_ddi_918_5)" mask="url(#prefix__a)"><path d="M228.419 136.169c2.965 0 5.247 1.365 6.843 4.096 1.825 2.731 2.738 6.486 2.738 11.265 0 9.103-2.167 16.158-6.502 21.165-10.265 12.061-20.645 21.961-31.139 29.699C190.093 210.131 179.371 214 168.193 214c-14.829 0-25.665-5.234-32.509-15.703-6.615-10.468-9.923-24.351-9.923-41.646 0-9.331 1.14-21.165 3.422-35.502 2.281-14.565 5.247-28.675 8.897-42.33H96.674c-9.125 43.012-14.828 81.473-17.11 115.382-.455 7.282-2.623 12.403-6.5 15.361-3.88 2.959-9.924 4.438-18.137 4.438-7.3 0-12.319-1.479-15.057-4.438-2.737-2.958-4.106-7.624-4.106-13.996 0-1.82.228-5.006.684-9.558 3.194-37.778 8.67-73.507 16.426-107.189h-3.422c-6.844 0-11.52-1.251-14.03-3.755C33.14 72.561 32 68.578 32 63.117 32 50.372 37.133 44 47.399 44H202.07c3.65 0 6.273.797 7.87 2.39 1.597 1.593 2.396 4.551 2.396 8.875 0 7.51-2.966 13.313-8.897 17.41-5.704 4.096-13.346 6.144-22.927 6.144h-.343l-4.79 25.603c-5.475 25.033-8.213 41.988-8.213 50.863 0 6.827.913 12.062 2.738 15.703s4.904 5.462 9.239 5.462c4.106 0 9.239-2.845 15.399-8.534 6.159-5.69 14.372-14.679 24.637-26.968 2.738-3.186 5.818-4.779 9.24-4.779z" fill="#5CB5DB"/></g><defs><filter id="prefix__prefix__filter0_ddi_918_5" x="8" y="20" width="254" height="218" filterUnits="userSpaceOnUse" color-interpolation-filters="sRGB"><feFlood flood-opacity="0" result="BackgroundImageFix"/><feColorMatrix in="SourceAlpha" values="0 0 0 0 0 0 0 0 0 0 0 0 0 0 0 0 0 0 127 0" result="hardAlpha"/><feOffset/><feGaussianBlur stdDeviation="3"/><feComposite in2="hardAlpha" operator="out"/><feColorMatrix values="0 0 0 0 0 0 0 0 0 0 0 0 0 0 0 0 0 0 0.15 0"/><feBlend in2="BackgroundImageFix" result="effect1_dropShadow_918_5"/><feColorMatrix in="SourceAlpha" values="0 0 0 0 0 0 0 0 0 0 0 0 0 0 0 0 0 0 127 0" result="hardAlpha"/><feOffset/><feGaussianBlur stdDeviation="8"/><feComposite in2="hardAlpha" operator="out"/><feColorMatrix values="0 0 0 0 0.620692 0 0 0 0 0.731083 0 0 0 0 0.771517 0 0 0 1 0"/><feBlend in2="effect1_dropShadow_918_5" result="effect2_dropShadow_918_5"/><feBlend in="SourceGraphic" in2="effect2_dropShadow_918_5" result="shape"/><feColorMatrix in="SourceAlpha" values="0 0 0 0 0 0 0 0 0 0 0 0 0 0 0 0 0 0 127 0" result="hardAlpha"/><feOffset dy="4"/><feGaussianBlur stdDeviation="24"/><feComposite in2="hardAlpha" operator="arithmetic" k2="-1" k3="1"/><feColorMatrix values="0 0 0 0 0.789258 0 0 0 0 0.521162 0 0 0 0 0.612382 0 0 0 1 0"/><feBlend in2="shape" result="effect3_innerShadow_918_5"/></filter></defs></svg>